<svg xmlns="http://www.w3.org/2000/svg" width="67.88" height="105.59" viewBox="0 0 67.88 105.59">
  <g id="download" transform="translate(-25.95 -14.46)">
    <path id="Контур_1062" data-name="Контур 1062" d="M85.37,31.07" fill="#f08300"/>
    <g id="Сгруппировать_684" data-name="Сгруппировать 684">
      <path id="Контур_1063" data-name="Контур 1063" d="M82.82,71.23,67.45,59.25l-.01,11.98L52.08,59.25V71.24L35.12,57.5a37.766,37.766,0,0,0-2.52,3.23l2.7,3.6a6.394,6.394,0,0,1,.72,6.29.254.254,0,0,0-.02.07,6.39,6.39,0,0,1-4.98,3.94l-4.42.63a37,37,0,0,0-.65,6.93,36.521,36.521,0,0,0,.65,6.9l4.44.63A6.4,6.4,0,0,1,36,93.65c.01.02.02.05.03.07a6.4,6.4,0,0,1-.72,6.31l-2.7,3.6a37.739,37.739,0,0,0,9.76,9.76l3.6-2.7a6.221,6.221,0,0,1,6.18-.77c.1.04.2.08.31.13a6.27,6.27,0,0,1,3.82,4.92l.63,4.44a37.731,37.731,0,0,0,13.84,0l.63-4.44a6.236,6.236,0,0,1,3.82-4.92c.1-.04.2-.08.3-.13a6.272,6.272,0,0,1,6.19.78l3.59,2.7a37.585,37.585,0,0,0,8.55-8.15c-2.31-1.88-6.22-5.05-10.99-8.92C82.82,91.67,82.82,71.23,82.82,71.23Z" fill="#4d4d4d"/>
    </g>
    <rect id="Прямоугольник_315" data-name="Прямоугольник 315" width="8.23" height="6.32" transform="translate(40.74 75.33)" fill="#fff"/>
    <rect id="Прямоугольник_316" data-name="Прямоугольник 316" width="8.23" height="6.32" transform="translate(70.48 75.33)" fill="#fff"/>
    <rect id="Прямоугольник_317" data-name="Прямоугольник 317" width="8.23" height="6.32" transform="translate(55.61 75.33)" fill="#fff"/>
    <path id="Контур_1064" data-name="Контур 1064" d="M49.54,53.67,55.6,58.4,53.82,29.69H45.57L43.66,60.36l5.88,4.59Z" fill="#f08300"/>
    <path id="Контур_1065" data-name="Контур 1065" d="M85.12,95.19l7.93,6.36-6.13-62.8H78.19L76.63,62.98l8.49,6.62Z" fill="#999"/>
    <g id="Сгруппировать_685" data-name="Сгруппировать 685">
      <path id="Контур_1066" data-name="Контур 1066" d="M41.59,95.3a.192.192,0,0,0,.22.22h1.04a.192.192,0,0,0,.22-.22V86.23a.192.192,0,0,1,.22-.22h.45a.192.192,0,0,1,.22.22v9.29a.856.856,0,0,1-.89.89H41.58a.856.856,0,0,1-.89-.89V86.23a.192.192,0,0,1,.22-.22h.45a.192.192,0,0,1,.22.22V95.3Z" fill="#fff"/>
      <path id="Контур_1067" data-name="Контур 1067" d="M46.35,88.09v8.1a.192.192,0,0,1-.22.22h-.45a.192.192,0,0,1-.22-.22V86.23a.192.192,0,0,1,.22-.22h.45a.3.3,0,0,1,.18.05.621.621,0,0,1,.12.17l1.41,3.27V86.23a.192.192,0,0,1,.22-.22h.45a.192.192,0,0,1,.22.22v9.96a.192.192,0,0,1-.22.22h-.45a.192.192,0,0,1-.22-.22V91.51Z" fill="#fff"/>
      <path id="Контур_1068" data-name="Контур 1068" d="M50.21,86.23a.192.192,0,0,1,.22-.22h.45a.192.192,0,0,1,.22.22v9.96a.192.192,0,0,1-.22.22h-.45a.192.192,0,0,1-.22-.22Z" fill="#fff"/>
      <path id="Контур_1069" data-name="Контур 1069" d="M55.86,95.52a.856.856,0,0,1-.89.89H53.48a.856.856,0,0,1-.89-.89V86.9a.856.856,0,0,1,.89-.89h1.49a.856.856,0,0,1,.89.89v1.64a.192.192,0,0,1-.22.22h-.45a.192.192,0,0,1-.22-.22V87.13a.192.192,0,0,0-.22-.22H53.71a.192.192,0,0,0-.22.22v8.18a.192.192,0,0,0,.22.22h1.04a.192.192,0,0,0,.22-.22V93.82a.192.192,0,0,1,.22-.22h.45a.192.192,0,0,1,.22.22Z" fill="#fff"/>
      <path id="Контур_1070" data-name="Контур 1070" d="M58.98,86.01c.13,0,.2.07.22.22l1.26,9.96a.192.192,0,0,1-.22.22H59.8c-.14,0-.21-.07-.22-.22l-.22-1.71H57.72l-.22,1.71c-.02.15-.09.22-.22.22h-.45a.192.192,0,0,1-.22-.22l1.26-9.96c.01-.15.08-.22.22-.22Zm.3,7.58-.74-6.02-.74,6.02Z" fill="#fff"/>
      <path id="Контур_1071" data-name="Контур 1071" d="M61.51,86.23a.192.192,0,0,1,.22-.22h2.16a.856.856,0,0,1,.89.89v5.35a.856.856,0,0,1-.89.89H62.4v3.05a.192.192,0,0,1-.22.22h-.45a.192.192,0,0,1-.22-.22Zm.89.67v5.35h1.26a.2.2,0,0,0,.22-.22V87.12a.192.192,0,0,0-.22-.22H62.4Z" fill="#fff"/>
      <path id="Контур_1072" data-name="Контур 1072" d="M66.12,86.23a.192.192,0,0,1,.22-.22H68.5a.856.856,0,0,1,.89.89v5.35a.731.731,0,0,1-.06.3.688.688,0,0,1-.13.21.548.548,0,0,1-.18.16l.89,3.27c.04.15-.01.22-.15.22h-.45a.264.264,0,0,1-.3-.22l-.82-3.05H67v3.05a.192.192,0,0,1-.22.22h-.45a.192.192,0,0,1-.22-.22V86.23Zm.89.67v5.35h1.26a.2.2,0,0,0,.22-.22V87.12a.192.192,0,0,0-.22-.22H67.01Z" fill="#fff"/>
      <path id="Контур_1073" data-name="Контур 1073" d="M70.98,86.9a.856.856,0,0,1,.89-.89h1.49a.856.856,0,0,1,.89.89v8.62a.856.856,0,0,1-.89.89H71.87a.856.856,0,0,1-.89-.89Zm2.16,8.62a.192.192,0,0,0,.22-.22V87.12a.192.192,0,0,0-.22-.22H72.1a.192.192,0,0,0-.22.22V95.3a.192.192,0,0,0,.22.22Z" fill="#fff"/>
      <path id="Контур_1074" data-name="Контур 1074" d="M75.74,86.23a.192.192,0,0,1,.22-.22h2.53a.192.192,0,0,1,.22.22v.45a.192.192,0,0,1-.22.22H76.63v4.01h1.26a.192.192,0,0,1,.22.22v.45a.192.192,0,0,1-.22.22H76.63v4.39a.192.192,0,0,1-.22.22h-.45a.192.192,0,0,1-.22-.22Z" fill="#fff"/>
    </g>
    <path id="Контур_1093" data-name="Контур 1093" d="M49.59,20.94a1.953,1.953,0,0,0-1.95-1.95H39.46l-3.54-4.53v7.49a1.953,1.953,0,0,0,1.95,1.95h8.18l3.54,4.53Z" fill="#4d4d4d"/>
    <path id="Контур_1094" data-name="Контур 1094" d="M66.15,25.52a1.953,1.953,0,0,0-1.95-1.95H56.02l-3.54-4.53v7.49a1.953,1.953,0,0,0,1.95,1.95h8.18l3.54,4.53Z" fill="#878787"/>
    <path id="Контур_1095" data-name="Контур 1095" d="M82.72,30.05a1.953,1.953,0,0,0-1.95-1.95H72.59l-3.54-4.53v7.49A1.953,1.953,0,0,0,71,33.01h8.18l3.54,4.53Z" fill="#999"/>
    <path id="Контур_1096" data-name="Контур 1096" d="M70.95,58.02,69.47,34.27c-.01,0-.01-.01-.02-.01H60.6l-.93,14.98L59,60h.04l-.02.36,2.48,1.93,3.4,2.65V53.66l6.06,4.73L70.93,58Z" fill="#f9b233"/>
  </g>
</svg>
