<?xml version="1.0" encoding="utf-8"?>
<!-- Generator: Adobe Illustrator 24.0.1, SVG Export Plug-In . SVG Version: 6.00 Build 0)  -->
<svg version="1.1" id="Layer_1" xmlns="http://www.w3.org/2000/svg" xmlns:xlink="http://www.w3.org/1999/xlink" x="0px" y="0px"
	 viewBox="0 0 283.46 141.73" style="enable-background:new 0 0 283.46 141.73;" xml:space="preserve">
<style type="text/css">
	.st0{fill:#F08300;}
	.st1{fill:#4D4D4D;}
	.st2{fill:#FFFFFF;}
	.st3{fill:#999999;}
	.st4{fill:#303034;}
	.st5{fill:#878787;}
	.st6{fill:#F9B233;}
</style>
<path class="st0" d="M85.37,31.07"/>
<g>
	<path class="st1" d="M82.82,71.23L67.45,59.25l-0.01,11.98L52.08,59.25v11.99L35.12,57.5c-0.89,1.03-1.74,2.1-2.52,3.23l2.7,3.6
		c1.35,1.82,1.59,4.2,0.72,6.29C36.01,70.65,36,70.67,36,70.69c-0.87,2.1-2.73,3.62-4.98,3.94l-4.42,0.63
		c-0.43,2.26-0.65,4.57-0.65,6.93c0,2.36,0.22,4.66,0.65,6.9l4.44,0.63c2.24,0.33,4.09,1.84,4.96,3.93
		c0.01,0.02,0.02,0.05,0.03,0.07c0.87,2.1,0.64,4.49-0.72,6.31l-2.7,3.6c2.63,3.83,5.93,7.13,9.76,9.76l3.6-2.7
		c1.77-1.34,4.13-1.64,6.18-0.77c0.1,0.04,0.2,0.08,0.31,0.13c2.06,0.84,3.5,2.72,3.82,4.92l0.63,4.44
		c2.23,0.42,4.55,0.64,6.91,0.64c2.36,0,4.69-0.22,6.93-0.64l0.63-4.44c0.31-2.2,1.76-4.09,3.82-4.92c0.1-0.04,0.2-0.08,0.3-0.13
		c2.05-0.86,4.4-0.56,6.19,0.78l3.59,2.7c3.27-2.24,6.13-5,8.55-8.15c-2.31-1.88-6.22-5.05-10.99-8.92
		C82.82,91.67,82.82,71.23,82.82,71.23z"/>
</g>
<rect x="40.74" y="75.33" class="st2" width="8.23" height="6.32"/>
<rect x="70.48" y="75.33" class="st2" width="8.23" height="6.32"/>
<rect x="55.61" y="75.33" class="st2" width="8.23" height="6.32"/>
<polygon class="st0" points="49.54,53.67 55.6,58.4 53.82,29.69 45.57,29.69 43.66,60.36 49.54,64.95 "/>
<polygon class="st3" points="85.12,95.19 93.05,101.55 86.92,38.75 78.19,38.75 76.63,62.98 85.12,69.6 "/>
<g>
	<path class="st2" d="M41.59,95.3c0,0.15,0.07,0.22,0.22,0.22h1.04c0.15,0,0.22-0.07,0.22-0.22v-9.07c0-0.15,0.07-0.22,0.22-0.22
		h0.45c0.15,0,0.22,0.07,0.22,0.22v9.29c0,0.26-0.08,0.47-0.25,0.64c-0.17,0.17-0.38,0.25-0.64,0.25h-1.49
		c-0.26,0-0.47-0.08-0.64-0.25c-0.17-0.17-0.25-0.38-0.25-0.64v-9.29c0-0.15,0.07-0.22,0.22-0.22h0.45c0.15,0,0.22,0.07,0.22,0.22
		V95.3z"/>
	<path class="st2" d="M46.35,88.09v8.1c0,0.15-0.07,0.22-0.22,0.22h-0.45c-0.15,0-0.22-0.07-0.22-0.22v-9.96
		c0-0.15,0.07-0.22,0.22-0.22h0.45c0.08,0,0.14,0.02,0.18,0.05c0.04,0.04,0.08,0.09,0.12,0.17l1.41,3.27v-3.27
		c0-0.15,0.07-0.22,0.22-0.22h0.45c0.15,0,0.22,0.07,0.22,0.22v9.96c0,0.15-0.07,0.22-0.22,0.22h-0.45c-0.15,0-0.22-0.07-0.22-0.22
		v-4.68L46.35,88.09z"/>
	<path class="st2" d="M50.21,86.23c0-0.15,0.07-0.22,0.22-0.22h0.45c0.15,0,0.22,0.07,0.22,0.22v9.96c0,0.15-0.07,0.22-0.22,0.22
		h-0.45c-0.15,0-0.22-0.07-0.22-0.22V86.23z"/>
	<path class="st2" d="M55.86,95.52c0,0.26-0.08,0.47-0.25,0.64c-0.17,0.17-0.38,0.25-0.64,0.25h-1.49c-0.26,0-0.47-0.08-0.64-0.25
		c-0.17-0.17-0.25-0.38-0.25-0.64V86.9c0-0.26,0.08-0.47,0.25-0.64c0.17-0.17,0.38-0.25,0.64-0.25h1.49c0.26,0,0.47,0.08,0.64,0.25
		c0.17,0.17,0.25,0.38,0.25,0.64v1.64c0,0.15-0.07,0.22-0.22,0.22h-0.45c-0.15,0-0.22-0.07-0.22-0.22v-1.41
		c0-0.15-0.07-0.22-0.22-0.22h-1.04c-0.15,0-0.22,0.07-0.22,0.22v8.18c0,0.15,0.07,0.22,0.22,0.22h1.04c0.15,0,0.22-0.07,0.22-0.22
		v-1.49c0-0.15,0.07-0.22,0.22-0.22h0.45c0.15,0,0.22,0.07,0.22,0.22V95.52z"/>
	<path class="st2" d="M58.98,86.01c0.13,0,0.2,0.07,0.22,0.22l1.26,9.96c0,0.15-0.07,0.22-0.22,0.22H59.8
		c-0.14,0-0.21-0.07-0.22-0.22l-0.22-1.71h-1.64l-0.22,1.71c-0.02,0.15-0.09,0.22-0.22,0.22h-0.45c-0.15,0-0.22-0.07-0.22-0.22
		l1.26-9.96c0.01-0.15,0.08-0.22,0.22-0.22H58.98z M59.28,93.59l-0.74-6.02l-0.74,6.02H59.28z"/>
	<path class="st2" d="M61.51,86.23c0-0.15,0.07-0.22,0.22-0.22h2.16c0.26,0,0.47,0.08,0.64,0.25c0.17,0.17,0.25,0.38,0.25,0.64v5.35
		c0,0.26-0.08,0.47-0.25,0.64c-0.17,0.17-0.38,0.25-0.64,0.25H62.4v3.05c0,0.15-0.07,0.22-0.22,0.22h-0.45
		c-0.15,0-0.22-0.07-0.22-0.22V86.23z M62.4,86.9v5.35h1.26c0.15,0,0.22-0.08,0.22-0.22v-4.91c0-0.15-0.07-0.22-0.22-0.22H62.4z"/>
	<path class="st2" d="M66.12,86.23c0-0.15,0.07-0.22,0.22-0.22h2.16c0.26,0,0.47,0.08,0.64,0.25c0.17,0.17,0.25,0.38,0.25,0.64v5.35
		c0,0.11-0.02,0.21-0.06,0.3c-0.04,0.09-0.08,0.16-0.13,0.21c-0.05,0.07-0.11,0.12-0.18,0.16l0.89,3.27
		c0.04,0.15-0.01,0.22-0.15,0.22h-0.45c-0.17,0-0.27-0.07-0.3-0.22l-0.82-3.05h-1.19v3.05c0,0.15-0.07,0.22-0.22,0.22h-0.45
		c-0.15,0-0.22-0.07-0.22-0.22V86.23z M67.01,86.9v5.35h1.26c0.15,0,0.22-0.08,0.22-0.22v-4.91c0-0.15-0.07-0.22-0.22-0.22H67.01z"
		/>
	<path class="st2" d="M70.98,86.9c0-0.26,0.08-0.47,0.25-0.64c0.17-0.17,0.38-0.25,0.64-0.25h1.49c0.26,0,0.47,0.08,0.64,0.25
		c0.17,0.17,0.25,0.38,0.25,0.64v8.62c0,0.26-0.08,0.47-0.25,0.64c-0.17,0.17-0.38,0.25-0.64,0.25h-1.49
		c-0.26,0-0.47-0.08-0.64-0.25c-0.17-0.17-0.25-0.38-0.25-0.64V86.9z M73.14,95.52c0.15,0,0.22-0.07,0.22-0.22v-8.18
		c0-0.15-0.07-0.22-0.22-0.22H72.1c-0.15,0-0.22,0.07-0.22,0.22v8.18c0,0.15,0.07,0.22,0.22,0.22H73.14z"/>
	<path class="st2" d="M75.74,86.23c0-0.15,0.07-0.22,0.22-0.22h2.53c0.15,0,0.22,0.07,0.22,0.22v0.45c0,0.15-0.07,0.22-0.22,0.22
		h-1.86v4.01h1.26c0.15,0,0.22,0.07,0.22,0.22v0.45c0,0.15-0.07,0.22-0.22,0.22h-1.26v4.39c0,0.15-0.07,0.22-0.22,0.22h-0.45
		c-0.15,0-0.22-0.07-0.22-0.22V86.23z"/>
</g>
<g>
	<g>
		<path class="st4" d="M135.77-63.28c-1.54,4.53-3.6,5.81-7.71,6.23l-0.56-3.02c2.21-0.31,3.27-0.87,4.08-2.6h-1.45l-5.31-14.22h4.5
			l3.52,11.71l3.07-11.71h4.47L135.77-63.28z"/>
		<path class="st4" d="M150.69-65.85h-4.83v8.33h-4.47v-19.36h4.47v7.54h4.83v-7.54h4.47v19.36h-4.47V-65.85z"/>
		<path class="st4" d="M171.87-57.52h-4.27v-7.38c0-3.16,0.28-5.67,0.56-7.57l-4.64,14.95h-5.31v-19.36h4.25v7.49
			c0,3.33-0.25,5.45-0.53,7.46l4.69-14.95h5.25V-57.52z"/>
		<path class="st4" d="M184.89-68.08l4.67,10.56h-4.75l-3.69-8.47h-1.7v8.47h-4.47v-19.36h4.47v7.63h1.82l3.58-7.63h4.27
			L184.89-68.08z"/>
		<path class="st4" d="M199.39-61.74h-4.92l-0.87,4.22h-4.53l5.22-19.36h5.36l5.2,19.36h-4.61L199.39-61.74z M198.72-64.95
			l-1.79-8.66l-1.79,8.66H198.72z"/>
		<path class="st4" d="M219.84-57.52h-4.5v-15.92h-4.78v15.92h-4.47v-19.36h13.75V-57.52z"/>
		<path class="st4" d="M236.13-70.6c0,4.47-2.88,6.59-7.29,6.59h-1.48v6.48h-4.47v-19.36h5.53
			C233.31-76.88,236.13-74.76,236.13-70.6z M231.55-70.57c0-2.12-0.95-3.13-3.07-3.13h-1.12v6.45h1.12
			C230.52-67.25,231.55-68.14,231.55-70.57z"/>
		<path class="st4" d="M253.32-67.22c0,6.59-2.93,10.17-7.96,10.17s-7.96-3.46-7.96-10.17c0-6.57,2.93-10.14,7.96-10.14
			S253.32-73.92,253.32-67.22z M242.06-67.22c0,5.11,1.12,6.9,3.3,6.9c2.24,0,3.3-1.79,3.3-6.9c0-5.03-1.09-6.87-3.3-6.87
			S242.06-72.25,242.06-67.22z"/>
		<path class="st4" d="M267.09-58.72v2.29h-4.36v-2.29c-4.81-0.25-8.1-2.77-8.1-8.47c0-5.87,3.33-8.38,8.1-8.61v-2.15h4.36v2.15
			c4.81,0.25,8.1,2.79,8.1,8.47C275.19-61.46,271.87-58.95,267.09-58.72z M262.96-61.49v-11.54c-2.71,0.25-3.8,1.9-3.8,5.84
			C259.16-63.31,260.33-61.71,262.96-61.49z M270.7-67.33c0-3.88-1.2-5.48-3.83-5.7v11.54C269.58-61.74,270.7-63.39,270.7-67.33z"/>
	</g>
	<g>
		<path class="st5" d="M137.37-93.29c0,5.15-2.27,7.89-6.08,7.89s-6.11-2.66-6.11-7.89c0-5.12,2.29-7.89,6.11-7.89
			C135.08-101.18,137.37-98.52,137.37-93.29z M128.45-93.29c0,4.1,1,5.54,2.83,5.54c1.85,0,2.81-1.44,2.81-5.54
			c0-4.06-0.96-5.54-2.81-5.54C129.43-98.83,128.45-97.34,128.45-93.29z"/>
		<path class="st5" d="M155.77-93.29c0,5.15-2.27,7.89-6.08,7.89s-6.11-2.66-6.11-7.89c0-5.12,2.29-7.89,6.11-7.89
			C153.48-101.18,155.77-98.52,155.77-93.29z M146.85-93.29c0,4.1,1,5.54,2.83,5.54c1.85,0,2.81-1.44,2.81-5.54
			c0-4.06-0.96-5.54-2.81-5.54S146.85-97.34,146.85-93.29z"/>
		<path class="st5" d="M174.18-93.29c0,5.15-2.27,7.89-6.08,7.89c-3.82,0-6.11-2.66-6.11-7.89c0-5.12,2.29-7.89,6.11-7.89
			C171.89-101.18,174.18-98.52,174.18-93.29z M165.26-93.29c0,4.1,1,5.54,2.83,5.54c1.85,0,2.81-1.44,2.81-5.54
			c0-4.06-0.96-5.54-2.81-5.54S165.26-97.34,165.26-93.29z"/>
		<path class="st5" d="M186.02-96.52l-2.59,4.56l2.59,4.54l-1.85,1.24l-3.71-4.8v-1.96l3.71-4.8L186.02-96.52z M191.34-96.52
			l-2.59,4.56l2.59,4.54l-1.85,1.24l-3.71-4.8v-1.96l3.71-4.8L191.34-96.52z"/>
		<path class="st5" d="M210.07-88.19v5.95h-2.18l-0.35-3.51h-9.33v-15.09h3.14v12.63h4.01v-12.63h3.14v12.65H210.07z"/>
		<path class="st5" d="M224.52-98.39h-3.38v12.65H218v-12.65h-3.53v-2.44h10.38L224.52-98.39z"/>
		<path class="st5" d="M241.33-85.74h-3.14v-12.63h-4.14v12.63h-3.14v-15.09h10.42V-85.74z"/>
		<path class="st5" d="M258.74-90.69c0,3.42-2.2,4.95-5.52,4.95h-4.49v-15.09h8.44l-0.33,2.42h-4.97v3.03h1.42
			C256.73-95.38,258.74-93.83,258.74-90.69z M255.44-90.65c0-1.7-0.74-2.49-2.42-2.49h-1.16v5.06h1.22
			C254.64-88.08,255.44-88.75,255.44-90.65z"/>
		<path class="st5" d="M270.2-92.94v1.96l-3.68,4.8l-1.88-1.24l2.6-4.54l-2.6-4.56l1.88-1.22L270.2-92.94z M275.48-92.94v1.96
			l-3.69,4.8l-1.88-1.24l2.59-4.54l-2.59-4.56l1.88-1.22L275.48-92.94z"/>
	</g>
</g>
<path class="st1" d="M49.59,20.94c0-1.07-0.87-1.95-1.95-1.95h-8.18l-3.54-4.53l0,7.49c0,1.07,0.87,1.95,1.95,1.95h8.18l3.54,4.53
	L49.59,20.94z"/>
<path class="st5" d="M66.15,25.52c0-1.07-0.87-1.95-1.95-1.95h-8.18l-3.54-4.53l0,7.49c0,1.07,0.87,1.95,1.95,1.95h8.18l3.54,4.53
	L66.15,25.52z"/>
<path class="st3" d="M82.72,30.05c0-1.07-0.87-1.95-1.95-1.95h-8.18l-3.54-4.53l0,7.49c0,1.07,0.87,1.95,1.95,1.95h8.18l3.54,4.53
	L82.72,30.05z"/>
<path class="st6" d="M70.95,58.02l-1.48-23.75c-0.01,0-0.01-0.01-0.02-0.01h-8.85l-0.93,14.98l-0.67,10.76L59.04,60l-0.02,0.36
	l2.48,1.93l3.4,2.65v-0.38v-10.9l6.06,4.73L70.93,58L70.95,58.02z"/>
<g>
	<path class="st4" d="M118.24,101.63c-1.52,4.48-3.57,5.75-7.63,6.17l-0.55-2.99c2.18-0.3,3.23-0.86,4.04-2.57h-1.44l-5.25-14.07
		h4.45l3.48,11.58l3.04-11.58h4.42L118.24,101.63z"/>
	<path class="st4" d="M133,99.09h-4.78v8.24h-4.42V88.17h4.42v7.47H133v-7.47h4.42v19.16H133V99.09z"/>
	<path class="st4" d="M153.96,107.33h-4.23v-7.3c0-3.13,0.28-5.61,0.55-7.49l-4.59,14.79h-5.25V88.17h4.2v7.41
		c0,3.29-0.25,5.39-0.53,7.38l4.65-14.79h5.2V107.33z"/>
	<path class="st4" d="M166.84,96.88l4.62,10.45h-4.7l-3.65-8.38h-1.69v8.38H157V88.17h4.42v7.55h1.8l3.54-7.55h4.23L166.84,96.88z"
		/>
	<path class="st4" d="M181.19,103.16h-4.87l-0.86,4.17h-4.48l5.17-19.16h5.31l5.14,19.16h-4.56L181.19,103.16z M180.53,99.98
		l-1.77-8.57l-1.77,8.57H180.53z"/>
	<path class="st4" d="M201.43,107.33h-4.45V91.57h-4.73v15.76h-4.42V88.17h13.6V107.33z"/>
	<path class="st4" d="M217.55,94.39c0,4.42-2.85,6.53-7.22,6.53h-1.47v6.41h-4.42V88.17h5.47
		C214.76,88.17,217.55,90.27,217.55,94.39z M213.02,94.42c0-2.1-0.94-3.1-3.04-3.1h-1.11v6.39h1.11
		C211.99,97.71,213.02,96.82,213.02,94.42z"/>
	<path class="st4" d="M234.55,97.74c0,6.52-2.9,10.06-7.88,10.06c-4.98,0-7.88-3.43-7.88-10.06c0-6.5,2.9-10.04,7.88-10.04
		C231.65,87.7,234.55,91.1,234.55,97.74z M223.41,97.74c0,5.06,1.11,6.83,3.26,6.83c2.21,0,3.26-1.77,3.26-6.83
		c0-4.98-1.08-6.8-3.26-6.8C224.49,90.93,223.41,92.76,223.41,97.74z"/>
	<path class="st4" d="M248.19,106.14v2.27h-4.31v-2.27c-4.76-0.25-8.02-2.74-8.02-8.38c0-5.81,3.29-8.29,8.02-8.52v-2.13h4.31v2.13
		c4.75,0.25,8.02,2.76,8.02,8.38C256.2,103.43,252.91,105.92,248.19,106.14z M244.09,103.4V91.99c-2.68,0.25-3.76,1.88-3.76,5.78
		C240.33,101.61,241.49,103.18,244.09,103.4z M251.75,97.63c0-3.84-1.19-5.42-3.79-5.64v11.42
		C250.65,103.16,251.75,101.52,251.75,97.63z"/>
</g>
<g>
	<path class="st5" d="M112.49,71.3v2.14h-0.64l-0.12-1.43h-3.92v-6.51h0.88v5.79h2.28v-5.79h0.88v5.8H112.49z"/>
	<path class="st5" d="M116.64,66.19h-2.25v2.15h1.96v0.68h-1.96v2.31h2.38v0.69h-3.26v-6.51h3.24L116.64,66.19z"/>
	<path class="st5" d="M121.19,68.96h-2.36v3.06h-0.88v-6.51h0.88v2.73h2.36v-2.73h0.88v6.51h-0.88V68.96z"/>
	<path class="st5" d="M127.11,66.22h-1.6v5.79h-0.88v-5.79h-1.65v-0.72h4.23L127.11,66.22z"/>
	<path class="st5" d="M131.94,67.51c0,1.47-0.95,2.09-2.37,2.09h-0.62v2.41h-0.88v-6.51h1.48
		C131.08,65.51,131.94,66.16,131.94,67.51z M131.02,67.52c0-0.96-0.5-1.34-1.48-1.34h-0.61v2.74h0.6
		C130.47,68.92,131.02,68.6,131.02,67.52z"/>
	<path class="st5" d="M138.66,66.22h-1.6v5.79h-0.88v-5.79h-1.65v-0.72h4.23L138.66,66.22z"/>
	<path class="st5" d="M143.49,67.51c0,1.47-0.95,2.09-2.38,2.09h-0.62v2.41h-0.88v-6.51h1.48
		C142.63,65.51,143.49,66.16,143.49,67.51z M142.57,67.52c0-0.96-0.5-1.34-1.48-1.34h-0.61v2.74h0.6
		C142.02,68.92,142.57,68.6,142.57,67.52z"/>
	<path class="st5" d="M146.56,70.2c-0.48,1.34-0.95,1.74-2.06,1.94l-0.13-0.62c0.76-0.18,1.06-0.42,1.38-1.29h-0.3l-1.89-4.72h0.89
		l1.55,4.18l1.36-4.18h0.88L146.56,70.2z"/>
	<path class="st5" d="M152.84,71.3v2.14h-0.64l-0.12-1.43h-3.39l-0.12,1.43h-0.64V71.3h0.36c0.39-0.45,0.54-0.99,0.76-2.91l0.3-2.89
		h3.03v5.8H152.84z M151.5,66.21h-1.39l-0.23,2.18c-0.2,1.9-0.4,2.44-0.87,2.92h2.49V66.21z"/>
	<path class="st5" d="M158.69,68.76c0,2.22-0.96,3.38-2.5,3.38c-1.51,0-2.5-1.12-2.5-3.37c0-2.22,0.99-3.39,2.5-3.39
		C157.71,65.38,158.69,66.49,158.69,68.76z M154.62,68.77c0,1.92,0.61,2.66,1.57,2.66c0.99,0,1.57-0.74,1.57-2.67
		c0-1.91-0.59-2.68-1.57-2.68C155.23,66.08,154.62,66.85,154.62,68.77z"/>
	<path class="st5" d="M163.98,70.18c0,1.28-0.94,1.84-2.35,1.84h-1.67v-6.51h1.41c1.48,0,2.34,0.55,2.34,1.64
		c0,0.8-0.49,1.27-1.15,1.43C163.32,68.7,163.98,69.1,163.98,70.18z M160.85,66.18v2.1h0.81c0.74,0,1.16-0.39,1.16-1.06
		c0-0.75-0.46-1.04-1.36-1.04H160.85z M163.07,70.16c0-0.87-0.51-1.23-1.33-1.23h-0.89v2.39h0.79
		C162.51,71.32,163.07,71.03,163.07,70.16z"/>
	<path class="st5" d="M169.8,68.76c0,2.22-0.96,3.38-2.5,3.38c-1.51,0-2.5-1.12-2.5-3.37c0-2.22,0.99-3.39,2.5-3.39
		C168.82,65.38,169.8,66.49,169.8,68.76z M165.74,68.77c0,1.92,0.61,2.66,1.57,2.66c0.99,0,1.57-0.74,1.57-2.67
		c0-1.91-0.59-2.68-1.57-2.68C166.34,66.08,165.74,66.85,165.74,68.77z"/>
	<path class="st5" d="M175.21,72.01h-0.86v-3.15c0-1,0.06-1.84,0.11-2.41l-2.31,5.56h-1.08v-6.51h0.85v3.17
		c0,1.06-0.05,1.81-0.1,2.4l2.31-5.57h1.08V72.01z M171.88,63.76l0.51-0.11c0.11,0.39,0.36,0.55,0.75,0.55
		c0.4,0,0.65-0.16,0.77-0.55l0.51,0.11c-0.08,0.66-0.56,1.08-1.28,1.08C172.43,64.83,171.96,64.42,171.88,63.76z"/>
	<path class="st5" d="M183.18,72.01h-0.86v-3.15c0-1,0.06-1.84,0.11-2.41l-2.31,5.56h-1.08v-6.51h0.85v3.17
		c0,1.06-0.05,1.81-0.1,2.4l2.31-5.57h1.08V72.01z"/>
	<path class="st5" d="M111.91,82.08h-0.88V76.3h-2.34v5.78h-0.88v-6.51h4.1V82.08z"/>
	<path class="st5" d="M117.39,77.58c0,1.47-0.95,2.09-2.37,2.09h-0.62v2.41h-0.88v-6.51h1.48
		C116.53,75.58,117.39,76.23,117.39,77.58z M116.47,77.59c0-0.96-0.5-1.34-1.48-1.34h-0.61v2.74h0.6
		C115.93,78.99,116.47,78.67,116.47,77.59z"/>
	<path class="st5" d="M123.12,78.83c0,2.22-0.97,3.38-2.5,3.38c-1.51,0-2.5-1.12-2.5-3.37c0-2.22,0.99-3.39,2.5-3.39
		C122.14,75.45,123.12,76.56,123.12,78.83z M119.06,78.84c0,1.92,0.61,2.66,1.57,2.66c0.99,0,1.57-0.74,1.57-2.67
		c0-1.91-0.59-2.68-1.57-2.68C119.66,76.15,119.06,76.92,119.06,78.84z"/>
	<path class="st5" d="M128.53,82.08h-0.86v-3.15c0-1,0.06-1.84,0.11-2.41l-2.31,5.56h-1.08v-6.51h0.85v3.17
		c0,1.06-0.05,1.81-0.1,2.4l2.31-5.57h1.08V82.08z"/>
	<path class="st5" d="M129.43,81.32l0.49-0.47c0.38,0.4,0.8,0.64,1.36,0.64c0.78,0,1.26-0.48,1.26-1.29c0-0.78-0.43-1.23-1.29-1.23
		l-0.57,0.01l0.11-0.7h0.45c0.7,0,1.13-0.41,1.13-1.1c0-0.58-0.31-1.03-0.99-1.03c-0.49,0-0.92,0.21-1.34,0.6l-0.44-0.48
		c0.54-0.53,1.14-0.81,1.86-0.81c1.16,0,1.83,0.72,1.83,1.67c0,0.8-0.46,1.3-1.22,1.48c0.79,0.1,1.41,0.62,1.41,1.63
		c0,1.21-0.9,1.99-2.14,1.99C130.57,82.21,129.92,81.91,129.43,81.32z"/>
	<path class="st5" d="M138.65,80.25c0,1.28-0.94,1.83-2.35,1.83h-1.67v-6.51h1.41c1.48,0,2.34,0.55,2.34,1.64
		c0,0.8-0.49,1.27-1.15,1.43C137.99,78.77,138.65,79.17,138.65,80.25z M135.52,76.25v2.1h0.81c0.74,0,1.16-0.39,1.16-1.06
		c0-0.75-0.46-1.04-1.36-1.04H135.52z M137.74,80.23c0-0.87-0.51-1.23-1.33-1.23h-0.89v2.39h0.79
		C137.18,81.39,137.74,81.1,137.74,80.23z"/>
	<path class="st5" d="M144.47,78.83c0,2.22-0.96,3.38-2.5,3.38c-1.51,0-2.5-1.12-2.5-3.37c0-2.22,0.99-3.39,2.5-3.39
		C143.49,75.45,144.47,76.56,144.47,78.83z M140.41,78.84c0,1.92,0.61,2.66,1.57,2.66c0.99,0,1.57-0.74,1.57-2.67
		c0-1.91-0.59-2.68-1.57-2.68C141.01,76.15,140.41,76.92,140.41,78.84z"/>
	<path class="st5" d="M149.73,81.38v2.14h-0.64l-0.12-1.43h-3.39l-0.12,1.43h-0.64v-2.14h0.36c0.39-0.45,0.54-0.99,0.76-2.91
		l0.3-2.89h3.03v5.8H149.73z M148.39,76.28H147l-0.23,2.18c-0.2,1.9-0.4,2.44-0.87,2.92h2.49V76.28z"/>
	<path class="st5" d="M154.71,76.1l-0.45,0.53c-0.36-0.31-0.69-0.46-1.13-0.46c-0.9,0-1.61,0.67-1.61,2.66
		c0,1.91,0.69,2.66,1.61,2.66c0.55,0,0.88-0.25,1.21-0.52l0.44,0.52c-0.38,0.39-0.94,0.73-1.7,0.73c-1.44,0-2.49-1.12-2.49-3.39
		s1.11-3.37,2.49-3.37C153.79,75.45,154.24,75.69,154.71,76.1z"/>
	<path class="st5" d="M159.05,76.29h-1.6v5.79h-0.88v-5.79h-1.65v-0.72h4.23L159.05,76.29z"/>
	<path class="st5" d="M164.02,80.25c0,1.28-0.94,1.83-2.35,1.83H160v-6.51h1.41c1.48,0,2.34,0.55,2.34,1.64
		c0,0.8-0.49,1.27-1.15,1.43C163.36,78.77,164.02,79.17,164.02,80.25z M160.88,76.25v2.1h0.81c0.74,0,1.16-0.39,1.16-1.06
		c0-0.75-0.46-1.04-1.36-1.04H160.88z M163.11,80.23c0-0.87-0.51-1.23-1.33-1.23h-0.89v2.39h0.79
		C162.55,81.39,163.11,81.1,163.11,80.23z"/>
	<path class="st5" d="M168.31,76.26h-2.25v2.15h1.96v0.68h-1.96v2.31h2.38v0.69h-3.26v-6.51h3.24L168.31,76.26z"/>
	<path class="st5" d="M172.86,79.03h-2.37v3.06h-0.88v-6.51h0.88v2.73h2.37v-2.73h0.88v6.51h-0.88V79.03z"/>
	<path class="st5" d="M178.59,79.03h-2.37v3.06h-0.88v-6.51h0.88v2.73h2.37v-2.73h0.88v6.51h-0.88V79.03z"/>
	<path class="st5" d="M185.74,78.83c0,2.22-0.96,3.38-2.5,3.38c-1.51,0-2.5-1.12-2.5-3.37c0-2.22,0.99-3.39,2.5-3.39
		C184.76,75.45,185.74,76.56,185.74,78.83z M181.67,78.84c0,1.92,0.61,2.66,1.57,2.66c0.99,0,1.57-0.74,1.57-2.67
		c0-1.91-0.59-2.68-1.57-2.68C182.28,76.15,181.67,76.92,181.67,78.84z"/>
	<path class="st5" d="M191.15,82.08h-0.86v-3.15c0-1,0.06-1.84,0.11-2.41l-2.31,5.56h-1.08v-6.51h0.85v3.17
		c0,1.06-0.05,1.81-0.1,2.4l2.31-5.57h1.08V82.08z M187.82,73.83l0.51-0.11c0.11,0.39,0.36,0.55,0.75,0.55
		c0.4,0,0.65-0.16,0.77-0.55l0.51,0.11c-0.08,0.66-0.56,1.08-1.28,1.08C188.37,74.9,187.9,74.49,187.82,73.83z"/>
	<path class="st5" d="M198.86,80c0,1.48-0.91,2.08-2.28,2.08h-1.6v-6.51h3.25l-0.1,0.71h-2.27v1.75h0.78
		C198.03,78.04,198.86,78.68,198.86,80z M197.93,80.01c0-0.93-0.46-1.3-1.33-1.3h-0.74v2.69h0.76
		C197.45,81.39,197.93,81.06,197.93,80.01z"/>
	<path class="st5" d="M203.08,76.26h-2.25v2.15h1.96v0.68h-1.96v2.31h2.38v0.69h-3.26v-6.51h3.24L203.08,76.26z"/>
	<path class="st5" d="M203.53,81.32l0.49-0.47c0.38,0.4,0.8,0.64,1.36,0.64c0.78,0,1.26-0.48,1.26-1.29c0-0.78-0.43-1.23-1.29-1.23
		l-0.57,0.01l0.11-0.7h0.45c0.7,0,1.13-0.41,1.13-1.1c0-0.58-0.31-1.03-0.99-1.03c-0.49,0-0.92,0.21-1.34,0.6l-0.45-0.48
		c0.54-0.53,1.14-0.81,1.86-0.81c1.16,0,1.83,0.72,1.83,1.67c0,0.8-0.46,1.3-1.22,1.48c0.79,0.1,1.41,0.62,1.41,1.63
		c0,1.21-0.9,1.99-2.14,1.99C204.67,82.21,204.03,81.91,203.53,81.32z"/>
	<path class="st5" d="M213.4,78.83c0,2.22-0.96,3.38-2.5,3.38c-1.51,0-2.5-1.12-2.5-3.37c0-2.22,0.99-3.39,2.5-3.39
		C212.42,75.45,213.4,76.56,213.4,78.83z M209.33,78.84c0,1.92,0.61,2.66,1.57,2.66c0.99,0,1.57-0.74,1.57-2.67
		c0-1.91-0.59-2.68-1.57-2.68C209.94,76.15,209.33,76.92,209.33,78.84z"/>
	<path class="st5" d="M218.77,82.08h-0.88V76.3h-2.34v5.78h-0.88v-6.51h4.1V82.08z"/>
	<path class="st5" d="M223.14,80.43h-2.19l-0.43,1.66h-0.88l1.88-6.51h1.08l1.88,6.51h-0.91L223.14,80.43z M222.96,79.74l-0.91-3.46
		l-0.92,3.46H222.96z"/>
	<path class="st5" d="M229.05,76.1l-0.45,0.53c-0.36-0.31-0.69-0.46-1.13-0.46c-0.9,0-1.61,0.67-1.61,2.66
		c0,1.91,0.69,2.66,1.61,2.66c0.55,0,0.88-0.25,1.21-0.52l0.44,0.52c-0.38,0.39-0.94,0.73-1.7,0.73c-1.44,0-2.49-1.12-2.49-3.39
		s1.11-3.37,2.49-3.37C228.14,75.45,228.59,75.69,229.05,76.1z"/>
	<path class="st5" d="M233.31,79.03h-2.37v3.06h-0.88v-6.51h0.88v2.73h2.37v-2.73h0.88v6.51h-0.88V79.03z"/>
	<path class="st5" d="M240.46,78.83c0,2.22-0.96,3.38-2.5,3.38c-1.51,0-2.5-1.12-2.5-3.37c0-2.22,0.99-3.39,2.5-3.39
		C239.48,75.45,240.46,76.56,240.46,78.83z M236.39,78.84c0,1.92,0.61,2.66,1.57,2.66c0.99,0,1.57-0.74,1.57-2.67
		c0-1.91-0.59-2.68-1.57-2.68C237,76.15,236.39,76.92,236.39,78.84z"/>
	<path class="st5" d="M245.53,76.1l-0.45,0.53c-0.36-0.31-0.69-0.46-1.13-0.46c-0.9,0-1.61,0.67-1.61,2.66
		c0,1.91,0.69,2.66,1.61,2.66c0.55,0,0.88-0.25,1.21-0.52l0.44,0.52c-0.38,0.39-0.94,0.73-1.7,0.73c-1.44,0-2.49-1.12-2.49-3.39
		s1.11-3.37,2.49-3.37C244.61,75.45,245.07,75.69,245.53,76.1z"/>
	<path class="st5" d="M249.87,76.29h-1.6v5.79h-0.88v-5.79h-1.65v-0.72h4.23L249.87,76.29z"/>
	<path class="st5" d="M254.96,82.08h-0.86v-3.15c0-1,0.06-1.84,0.11-2.41l-2.31,5.56h-1.08v-6.51h0.85v3.17
		c0,1.06-0.05,1.81-0.1,2.4l2.31-5.57h1.08V82.08z"/>
</g>
</svg>
