<svg xmlns="http://www.w3.org/2000/svg" width="66.413" height="54.928" viewBox="0 0 66.413 54.928">
  <g id="Сгруппировать_3" data-name="Сгруппировать 3" transform="translate(-24.04 -17.972)">
    <g id="Сгруппировать_1" data-name="Сгруппировать 1">
      <path id="Контур_1" data-name="Контур 1" d="M75.467,50.576h.007c-.023-.014-.048-.025-.07-.038A27.65,27.65,0,0,0,65.57,46.9a47.931,47.931,0,0,0-21.644.761l-1.434,5.815A26.165,26.165,0,0,0,34.419,66.8c-8.744,1.943-10.378,6.1-10.378,6.1H88.207A26.178,26.178,0,0,0,75.467,50.576ZM45.389,52,46,48.872s17.979-4.4,29.49,3.756C75.488,52.627,57.755,47.116,45.389,52Z" fill="#fea621"/>
    </g>
    <path id="Контур_2" data-name="Контур 2" d="M45.687,34.875c-.843-.541-1.818-1.667-2.049-4.009-.275-2.809,3.127-5.127,3.127-5.127C30.1,27.887,31.028,36.266,31.9,40.229c0,.018.006.037.01.056a5.117,5.117,0,0,1-2.265,5.887,2.386,2.386,0,0,0-.537.428,7.6,7.6,0,0,0-.733,1.571l-.751,2.01a1.814,1.814,0,0,0,1.136,2.344l5.746,2.012a1.911,1.911,0,0,0,2.424-1.1l.75-2.009a7.525,7.525,0,0,0,.477-1.663,1.888,1.888,0,0,0-.1-.571c-1.274-4.127,4.108-6.99,6.557-7.044,23.056-.511,33.37,3.85,44.606,17.3C89.222,59.451,81.239,38.5,45.687,34.875Z" fill="#333"/>
    <g id="Сгруппировать_2" data-name="Сгруппировать 2">
      <path id="Контур_3" data-name="Контур 3" d="M61.791,18.772a8.25,8.25,0,0,0-8.64.966l6.122,2.915a1.627,1.627,0,0,1,.777,2.21L58.616,27.68a1.733,1.733,0,0,1-2.283.752l-6.122-2.915a7.741,7.741,0,0,0,4.481,7.214,8.258,8.258,0,0,0,8.281-.693S78.2,36.509,90.454,53.817C85.142,36.4,66.275,25.544,66.275,25.544A7.758,7.758,0,0,0,61.791,18.772Z" fill="#333"/>
    </g>
  </g>
</svg>
